<?xml version="1.0" encoding="utf-8"?>
<!-- Generator: Adobe Illustrator 18.0.0, SVG Export Plug-In . SVG Version: 6.00 Build 0)  -->
<!DOCTYPE svg PUBLIC "-//W3C//DTD SVG 1.1//EN" "http://www.w3.org/Graphics/SVG/1.1/DTD/svg11.dtd">
<svg version="1.1" id="Layer_1" xmlns="http://www.w3.org/2000/svg" xmlns:xlink="http://www.w3.org/1999/xlink" x="0px" y="0px"
	 viewBox="0 0 256 256" enable-background="new 0 0 256 256" xml:space="preserve">
<path fill="none" stroke="#475A7C" stroke-width="14" stroke-linecap="round" stroke-miterlimit="10" d="M22.3,128
	c0,58.4,47.3,105.7,105.7,105.7S233.7,186.4,233.7,128S186.4,22.3,128,22.3c-14.8,0-29,3.1-41.8,8.6"/>
<circle fill="#475A7C" stroke="#475A7C" stroke-width="2" stroke-miterlimit="10" cx="128" cy="128" r="10.6"/>
<path fill="#475A7C" d="M132.6,133.4l-9.9-11.7l47.3-40.1c3.2-2.7,8-2.3,10.8,0.9l0,0c2.7,3.2,2.3,8-0.9,10.8L132.6,133.4z"/>
<path fill="#475A7C" d="M121.7,131.8l13.5-7.2l17.8,33.2c2,3.7,0.6,8.4-3.1,10.4l0,0c-3.7,2-8.4,0.6-10.4-3.1L121.7,131.8z"/>
<polyline fill="none" stroke="#475A7C" stroke-width="14" stroke-linecap="round" stroke-miterlimit="10" points="99.8,47.4 
	71.4,39.1 83.1,10.1 "/>
<path fill="#475A7C" d="M58.4,128L58.4,128c0,2.7-2.2,4.8-4.8,4.8H39.2c-2.7,0-4.8-2.2-4.8-4.8v0c0-2.7,2.2-4.8,4.8-4.8h14.4
	C56.3,123.2,58.4,125.3,58.4,128z"/>
<path fill="#475A7C" d="M224.4,128L224.4,128c0,2.7-2.2,4.8-4.8,4.8h-14.4c-2.7,0-4.8-2.2-4.8-4.8v0c0-2.7,2.2-4.8,4.8-4.8h14.4
	C222.3,123.2,224.4,125.3,224.4,128z"/>
<path fill="#475A7C" d="M128,54.9L128,54.9c-2.7,0-4.8-2.2-4.8-4.8V35.6c0-2.7,2.2-4.8,4.8-4.8h0c2.7,0,4.8,2.2,4.8,4.8V50
	C132.8,52.7,130.7,54.9,128,54.9z"/>
<path fill="#475A7C" d="M128,223.4L128,223.4c-2.7,0-4.8-2.2-4.8-4.8v-14.4c0-2.7,2.2-4.8,4.8-4.8h0c2.7,0,4.8,2.2,4.8,4.8v14.4
	C132.8,221.2,130.7,223.4,128,223.4z"/>
</svg>
